<?xml version="1.0" standalone="no"?>
<!DOCTYPE svg PUBLIC "-//W3C//DTD SVG 20010904//EN"
 "http://www.w3.org/TR/2001/REC-SVG-20010904/DTD/svg10.dtd">
<svg version="1.0" xmlns="http://www.w3.org/2000/svg"
 width="512.000000pt" height="512.000000pt" viewBox="0 0 512.000000 512.000000"
 preserveAspectRatio="xMidYMid meet">
<metadata>
Created by potrace 1.14, written by Peter Selinger 2001-2017
</metadata>
<g transform="translate(0.000000,512.000000) scale(0.100000,-0.100000)"
fill="#000000" stroke="none">
<path d="M60 2560 l0 -2560 2500 0 c2215 0 2500 2 2501 15 0 8 0 1151 0 2540
0 1389 0 2534 0 2545 -1 20 -8 20 -2501 20 l-2500 0 0 -2560z m896 1770 l-1
-295 -292 0 -293 0 0 291 c0 195 3 293 10 296 6 2 138 3 294 3 l284 0 -2 -295z
m2851 290 c10 0 12 -197 10 -897 l-2 -898 -1257 0 -1257 0 -1 897 0 897 47 3
c36 2 2395 1 2460 -2z m941 -290 l2 -296 -294 0 -293 1 -1 295 0 295 291 0
292 0 3 -295z m-3790 -1754 l0 -295 -294 1 -294 0 0 294 0 294 294 0 293 0 1
-294z m3792 -1 l0 -294 -294 0 -294 1 0 294 0 294 294 0 294 0 0 -295z m-931
-1177 l0 -898 -64 0 c-85 -1 -2409 -1 -2435 0 -20 0 -20 5 -20 894 1 491 3
895 5 897 2 2 568 4 1259 4 l1255 0 0 -897z m-2861 -574 l0 -293 -141 -3 c-78
-2 -211 -2 -294 0 l-153 3 0 293 0 293 294 0 293 0 1 -293z m3792 0 l0 -293
-122 -3 c-68 -2 -200 -2 -294 0 l-172 3 0 293 0 292 294 1 294 1 0 -294z"/>
</g>
</svg>
