<svg aria-hidden="true" style="position: absolute; width: 0; height: 0; overflow: hidden;" version="1.1" xmlns="http://www.w3.org/2000/svg" xmlns:xlink="http://www.w3.org/1999/xlink">
<defs>

<!-- header film -->
<symbol id="icon-film" viewBox="0 0 32 32">
<path stroke="#818181" style="stroke: var(#818181, #818181)" stroke-linejoin="round" stroke-linecap="round" stroke-miterlimit="4" stroke-width="2.6667" d="M26.427 2.667h-20.853c-1.605 0-2.907 1.301-2.907 2.907v0 20.853c0 1.605 1.301 2.907 2.907 2.907v0h20.853c1.605 0 2.907-1.301 2.907-2.907v0-20.853c0-1.605-1.301-2.907-2.907-2.907v0zM9.333 2.667v26.667M22.667 2.667v26.667M2.667 16h26.667M2.667 9.333h6.667M2.667 22.667h6.667M22.667 22.667h6.667M22.667 9.333h6.667"></path>
</symbol>

<!-- footer orange heart -->
<symbol id="icon-heart" viewBox="0 0 32 32">
<path  d="M16 30.144l-2.24-2.218c-8.32-7.287-13.76-12.198-13.76-18.218 0-4.911 3.84-8.713 8.8-8.713 2.72 0 5.44 1.267 7.2 3.327 1.76-2.059 4.48-3.327 7.2-3.327 4.96 0 8.8 3.802 8.8 8.713 0 6.020-5.44 10.931-13.76 18.218l-2.24 2.218z"></path>
</symbol>

<!-- close btn -->
<symbol id="icon-close" viewBox="0 0 32 32">
<path d="M23.733 10.304l-1.504-1.504-5.963 5.963-5.963-5.963-1.504 1.504 5.963 5.963-5.963 5.963 1.504 1.504 5.963-5.963 5.963 5.963 1.504-1.504-5.963-5.963 5.963-5.963z"></path>
</symbol>

<!-- social icons -->
<symbol id="icon-linkedin" viewBox="0 0 32 32">
<path  d="M31.992 32h0.008v-11.738c0-5.741-1.235-10.163-7.947-10.163-3.227 0-5.392 1.77-6.277 3.45h-0.093v-2.914h-6.365v21.363h6.627v-10.578c0-2.786 0.528-5.48 3.978-5.48 3.398 0 3.45 3.179 3.45 5.658v10.402h6.619zM0.528 10.635h6.635v21.365h-6.635v-21.365zM3.843 0c-2.123 0-3.843 1.721-3.843 3.843v0c0 2.12 1.722 3.878 3.843 3.878 2.12 0 3.842-1.757 3.842-3.878s-1.72-3.841-3.841-3.843h-0z"></path>
</symbol>

<symbol id="icon-github" viewBox="0 0 32 32">
<path d="M16 0c-8.835 0-16 7.164-16 16 0 7.069 4.584 13.067 10.943 15.183 0.799 0.148 1.057-0.348 1.057-0.769v-2.979c-4.451 0.968-5.377-1.888-5.377-1.888-0.728-1.849-1.777-2.341-1.777-2.341-1.452-0.993 0.111-0.972 0.111-0.972 1.607 0.112 2.452 1.649 2.452 1.649 1.427 2.445 3.743 1.739 4.656 1.329 0.143-1.033 0.557-1.74 1.016-2.139-3.553-0.407-7.289-1.779-7.289-7.908 0-1.748 0.625-3.175 1.648-4.295-0.165-0.404-0.713-2.032 0.156-4.235 0 0 1.344-0.429 4.401 1.64 1.276-0.355 2.644-0.532 4.004-0.539 1.36 0.007 2.729 0.184 4.008 0.539 3.055-2.069 4.396-1.64 4.396-1.64 0.871 2.204 0.323 3.832 0.157 4.235 1.027 1.12 1.647 2.548 1.647 4.295 0 6.145-3.743 7.499-7.305 7.895 0.573 0.496 1.097 1.469 1.097 2.963v4.391c0 0.425 0.256 0.925 1.068 0.768 6.353-2.119 10.932-8.115 10.932-15.181 0-8.836-7.164-16-16-16z"></path>
</symbol>

<symbol id="icon-instagram" viewBox="0 0 32 32">
<path   d="M31.968 9.408c-0.074-1.701-0.349-2.869-0.742-3.882-0.424-1.111-1.054-2.059-1.85-2.837l-0.001-0.001c-0.78-0.792-1.724-1.419-2.778-1.827l-0.054-0.018c-1.019-0.394-2.181-0.667-3.882-0.742-1.712-0.082-2.256-0.101-6.602-0.101-4.344 0-4.888 0.019-6.595 0.094-1.699 0.074-2.869 0.349-3.88 0.742-1.112 0.424-2.060 1.054-2.839 1.85l-0.001 0.001c-0.791 0.78-1.418 1.724-1.825 2.778l-0.018 0.054c-0.395 1.019-0.669 2.181-0.744 3.882-0.082 1.712-0.101 2.256-0.101 6.602 0 4.344 0.019 4.888 0.094 6.595 0.075 1.701 0.35 2.869 0.744 3.882 0.426 1.11 1.055 2.057 1.849 2.837l0.001 0.001c0.8 0.813 1.77 1.443 2.832 1.843 1.019 0.395 2.182 0.67 3.882 0.744 1.707 0.075 2.251 0.094 6.595 0.094 4.346 0 4.89-0.019 6.595-0.094 1.701-0.074 2.869-0.349 3.882-0.742 2.157-0.85 3.833-2.526 4.664-4.628l0.019-0.055c0.394-1.019 0.669-2.182 0.744-3.882 0.075-1.707 0.093-2.251 0.093-6.595s-0.006-4.888-0.080-6.595zM29.088 22.474c-0.070 1.563-0.333 2.406-0.55 2.97-0.552 1.399-1.64 2.486-3.004 3.024l-0.036 0.012c-0.56 0.219-1.411 0.482-2.968 0.55-1.688 0.075-2.194 0.094-6.464 0.094-4.269 0-4.782-0.019-6.464-0.094-1.563-0.069-2.406-0.331-2.97-0.55-0.721-0.269-1.334-0.676-1.836-1.192l-0.001-0.001c-0.517-0.503-0.924-1.117-1.184-1.803l-0.011-0.034c-0.218-0.563-0.48-1.413-0.549-2.97-0.075-1.688-0.094-2.195-0.094-6.464 0-4.27 0.019-4.784 0.094-6.464 0.069-1.563 0.331-2.406 0.549-2.97 0.269-0.722 0.678-1.337 1.198-1.837l0.002-0.002c0.504-0.517 1.119-0.923 1.806-1.182l0.034-0.011c0.56-0.219 1.411-0.48 2.968-0.55 1.688-0.074 2.195-0.093 6.464-0.093 4.275 0 4.782 0.019 6.464 0.093 1.563 0.069 2.406 0.331 2.97 0.55 0.693 0.256 1.325 0.662 1.837 1.194 0.531 0.52 0.938 1.144 1.195 1.84 0.218 0.56 0.48 1.411 0.549 2.968 0.075 1.688 0.094 2.194 0.094 6.464 0 4.269-0.019 4.768-0.094 6.458z"></path>
<path   d="M16.059 7.782c-4.539 0.002-8.218 3.682-8.219 8.221v0c0.091 4.471 3.737 8.060 8.221 8.060s8.13-3.589 8.221-8.052l0-0.009c-0.001-4.54-3.681-8.22-8.221-8.221h-0zM16.059 21.334c-2.945-0-5.332-2.388-5.332-5.333s2.388-5.333 5.333-5.333c0 0 0.001 0 0.001 0h-0c2.946 0 5.334 2.388 5.334 5.334s-2.388 5.334-5.334 5.334v0zM26.525 7.458c0 1.060-0.86 1.92-1.92 1.92s-1.92-0.86-1.92-1.92v0c0-1.060 0.86-1.92 1.92-1.92s1.92 0.86 1.92 1.92v0z"></path>
</symbol>

<symbol id="icon-facebook" viewBox="0 0 32 32">
<path  d="M21.328 5.312h2.923v-5.088c-1.232-0.143-2.66-0.224-4.107-0.224-0.052 0-0.104 0-0.157 0l0.008-0c-4.213 0-7.099 2.65-7.099 7.52v4.48h-4.646v5.688h4.646v14.312h5.699v-14.31h4.459l0.709-5.688h-5.17v-3.922c0-1.643 0.443-2.768 2.734-2.768z"></path>
</symbol>

<!-- sing-in-form close-btn -->
<symbol id="icon-close" viewBox="0 0 32 32">
<path d="M16.005 2.006c-7.728 0.009-13.992 6.267-14.009 13.993v0.002c0.017 7.727 6.281 13.986 14.009 13.994h0.001c7.725-0.009 13.986-6.269 13.994-13.993v-0.001c-0.009-7.725-6.269-13.986-13.993-13.994h-0.001zM11.288 10.008c0.015-0.001 0.033-0.001 0.051-0.001 0.365 0 0.696 0.147 0.937 0.384l-0-0 3.729 3.724 3.719-3.729c0.232-0.226 0.547-0.369 0.895-0.378l0.002-0c0.017-0.001 0.036-0.001 0.055-0.001 0.365 0 0.696 0.147 0.937 0.384l-0-0c0.242 0.242 0.392 0.576 0.392 0.945s-0.15 0.703-0.392 0.945l-3.724 3.719 3.729 3.719c0.242 0.242 0.392 0.576 0.392 0.945s-0.15 0.703-0.392 0.945v0c-0.242 0.244-0.577 0.394-0.947 0.394s-0.705-0.151-0.947-0.394l-3.724-3.724-3.729 3.729c-0.241 0.238-0.572 0.384-0.937 0.384s-0.696-0.147-0.937-0.384l0 0c-0.244-0.242-0.394-0.577-0.394-0.947s0.151-0.705 0.394-0.947l3.719-3.719-3.719-3.719c-0.242-0.242-0.392-0.576-0.392-0.945s0.15-0.703 0.392-0.945v0c0.23-0.227 0.543-0.371 0.89-0.383l0.002-0z"></path>
</symbol>

<!-- sing-in-form mail-icom -->
<symbol id="icon-mail" viewBox="0 0 32 32">
<path d="M16.056 31.531c-10.417 0-16.056-6.501-16.056-14.895 0-8.969 6.349-16.167 17.701-16.167 8.285 0 14.299 5.384 14.299 12.801 0 11.616-13.773 14.683-13.083 8.056-0.947 1.477-2.472 3.139-5.404 3.139-3.355 0-5.44-2.456-5.44-6.409 0-5.925 3.895-10.932 8.505-10.932 2.212 0 3.733 1.168 4.369 2.961l0.619-2.176h3.117c-0.325 1.109-3.095 11.369-3.095 11.369-0.864 3.555 1.8 3.617 4.163 1.729 4.439-3.44 4.668-12.436-1.331-16.188-6.428-3.855-21.060-1.469-21.060 11.591 0 7.481 5.267 12.508 13.105 12.508 4.581 0 7.389-1.24 9.727-2.597l1.569 2.264c-2.281 1.288-5.948 2.945-11.707 2.945zM12.931 12.457c-0.953 1.787-1.569 4.101-1.569 5.899 0 4.813 4.696 4.844 7.003 0.319 0.949-1.859 1.561-4.228 1.561-6.039 0-3.889-4.66-4.579-6.995-0.179z"></path>
</symbol>

<!-- sing-in-form password-icom -->
<symbol id="icon-key_password" viewBox="0 0 32 32">
<path d="M26.667 20v-2.667h1.333c0.736 0 1.333-0.597 1.333-1.333s-0.597-1.333-1.333-1.333v0h-12.065l-0.313-0.889c-0.945-2.609-3.402-4.439-6.285-4.439-3.681 0-6.665 2.982-6.669 6.661v0c0 0.002 0 0.005 0 0.008 0 3.682 2.985 6.667 6.667 6.667 2.888 0 5.347-1.837 6.273-4.405l0.015-0.046 0.312-0.889h8.067v2.667h2.667zM29.333 22.667h-8v-2.667h-3.565c-1.535 3.176-4.732 5.328-8.432 5.328-5.153 0-9.332-4.175-9.336-9.328v-0c0-0.001 0-0.003 0-0.004 0-5.155 4.179-9.333 9.333-9.333 3.703 0 6.902 2.156 8.41 5.282l0.024 0.056h10.232c0.002 0 0.004 0 0.006 0 2.209 0 4 1.791 4 4 0 1.733-1.103 3.209-2.645 3.765l-0.028 0.009v2.893zM9.333 18.667c1.473 0 2.667-1.194 2.667-2.667s-1.194-2.667-2.667-2.667v0c-1.473 0-2.667 1.194-2.667 2.667s1.194 2.667 2.667 2.667v0z"></path>
</symbol>

<symbol id="icon-exit" viewBox="0 0 32 32">
<path d="M24 20v-4h-10v-4h10v-4l6 6zM22 18v8h-10v6l-12-6v-26h22v10h-2v-8h-16l8 4v18h8v-6z"></path>
</symbol>
<!-- btn-up -->
<symbol id="icon-circle-up" viewBox="0 0 32 32">
<path d="M0 16c0 8.837 7.163 16 16 16s16-7.163 16-16-7.163-16-16-16-16 7.163-16 16zM29 16c0 7.18-5.82 13-13 13s-13-5.82-13-13 5.82-13 13-13 13 5.82 13 13z"></path>
<path d="M22.086 20.914l2.829-2.829-8.914-8.914-8.914 8.914 2.828 2.828 6.086-6.086z"></path>
</symbol>

<!-- dark-theme -->
<symbol id="icon-moon" viewBox="0 0 32 32">
<path d="M31.221 18.225c-0.327-0.082-0.655 0-0.941 0.205-1.064 0.9-2.291 1.637-3.642 2.128-1.268 0.491-2.66 0.737-4.133 0.737-3.314 0-6.342-1.35-8.511-3.519s-3.519-5.197-3.519-8.511c0-1.391 0.245-2.742 0.655-3.969 0.45-1.309 1.105-2.496 1.964-3.519 0.368-0.45 0.286-1.105-0.164-1.473-0.286-0.205-0.614-0.286-0.941-0.205-3.478 0.941-6.506 3.028-8.675 5.811-2.087 2.742-3.314 6.138-3.314 9.821 0 4.46 1.8 8.511 4.747 11.457s6.956 4.747 11.457 4.747c3.765 0 7.243-1.309 10.025-3.478 2.823-2.21 4.869-5.36 5.729-8.961 0.164-0.573-0.164-1.146-0.737-1.268z"></path>
</symbol>

<symbol id="icon-sun" viewBox="0 0 32 32">
<path d="M16 26c1.105 0 2 0.895 2 2v2c0 1.105-0.895 2-2 2s-2-0.895-2-2v-2c0-1.105 0.895-2 2-2zM16 6c-1.105 0-2-0.895-2-2v-2c0-1.105 0.895-2 2-2s2 0.895 2 2v2c0 1.105-0.895 2-2 2zM30 14c1.105 0 2 0.895 2 2s-0.895 2-2 2h-2c-1.105 0-2-0.895-2-2s0.895-2 2-2h2zM6 16c0 1.105-0.895 2-2 2h-2c-1.105 0-2-0.895-2-2s0.895-2 2-2h2c1.105 0 2 0.895 2 2zM25.899 23.071l1.414 1.414c0.781 0.781 0.781 2.047 0 2.828s-2.047 0.781-2.828 0l-1.414-1.414c-0.781-0.781-0.781-2.047 0-2.828s2.047-0.781 2.828 0zM6.101 8.929l-1.414-1.414c-0.781-0.781-0.781-2.047 0-2.828s2.047-0.781 2.828 0l1.414 1.414c0.781 0.781 0.781 2.047 0 2.828s-2.047 0.781-2.828 0zM25.899 8.929c-0.781 0.781-2.047 0.781-2.828 0s-0.781-2.047 0-2.828l1.414-1.414c0.781-0.781 2.047-0.781 2.828 0s0.781 2.047 0 2.828l-1.414 1.414zM6.101 23.071c0.781-0.781 2.047-0.781 2.828 0s0.781 2.047 0 2.828l-1.414 1.414c-0.781 0.781-2.047 0.781-2.828 0s-0.781-2.047 0-2.828l1.414-1.414z"></path>
<path d="M16 8c-4.418 0-8 3.582-8 8s3.582 8 8 8c4.418 0 8-3.582 8-8s-3.582-8-8-8zM16 21c-2.761 0-5-2.239-5-5s2.239-5 5-5 5 2.239 5 5-2.239 5-5 5z"></path>
</symbol>

</defs>
</svg>


